<svg width="81" height="80" viewBox="0 0 81 80" fill="none" xmlns="http://www.w3.org/2000/svg">
<g clip-path="url(#clip0_6551_118707)">
<path d="M59.8667 14.9C59.6 14.9 59.3333 14.8333 59.1 14.7C52.7 11.4 47.1667 10 40.5333 10C33.9333 10 27.6667 11.5667 21.9667 14.7C21.1667 15.1333 20.1667 14.8333 19.7 14.0333C19.2667 13.2333 19.5667 12.2 20.3667 11.7667C26.5667 8.4 33.3667 6.66667 40.5333 6.66667C47.6333 6.66667 53.8333 8.23333 60.6333 11.7333C61.4667 12.1667 61.7667 13.1667 61.3333 13.9667C61.0333 14.5667 60.4667 14.9 59.8667 14.9ZM12.1667 32.4C11.8333 32.4 11.5 32.3 11.2 32.1C10.4333 31.5667 10.2667 30.5333 10.8 29.7667C14.1 25.1 18.3 21.4333 23.3 18.8667C33.7667 13.4667 47.1667 13.4333 57.6667 18.8333C62.6667 21.4 66.8667 25.0333 70.1667 29.6667C70.7 30.4 70.5333 31.4667 69.7667 32C69 32.5333 67.9667 32.3667 67.4333 31.6C64.4333 27.4 60.6333 24.1 56.1333 21.8C46.5667 16.9 34.3333 16.9 24.8 21.8333C20.2667 24.1667 16.4667 27.5 13.4667 31.7C13.2 32.1667 12.7 32.4 12.1667 32.4ZM33 72.6333C32.5667 72.6333 32.1333 72.4667 31.8333 72.1333C28.9333 69.2333 27.3667 67.3667 25.1333 63.3333C22.8333 59.2333 21.6333 54.2333 21.6333 48.8667C21.6333 38.9667 30.1 30.9 40.5 30.9C50.9 30.9 59.3667 38.9667 59.3667 48.8667C59.3667 49.8 58.6333 50.5333 57.7 50.5333C56.7667 50.5333 56.0333 49.8 56.0333 48.8667C56.0333 40.8 49.0667 34.2333 40.5 34.2333C31.9333 34.2333 24.9667 40.8 24.9667 48.8667C24.9667 53.6667 26.0333 58.1 28.0667 61.7C30.2 65.5333 31.6667 67.1667 34.2333 69.7667C34.8667 70.4333 34.8667 71.4667 34.2333 72.1333C33.8667 72.4667 33.4333 72.6333 33 72.6333ZM56.9 66.4667C52.9333 66.4667 49.4333 65.4667 46.5667 63.5C41.6 60.1333 38.6333 54.6667 38.6333 48.8667C38.6333 47.9333 39.3667 47.2 40.3 47.2C41.2333 47.2 41.9667 47.9333 41.9667 48.8667C41.9667 53.5667 44.3667 58 48.4333 60.7333C50.8 62.3333 53.5667 63.1 56.9 63.1C57.7 63.1 59.0333 63 60.3667 62.7667C61.2667 62.6 62.1333 63.2 62.3 64.1333C62.4667 65.0333 61.8667 65.9 60.9333 66.0667C59.0333 66.4333 57.3667 66.4667 56.9 66.4667ZM50.2 73.3333C50.0667 73.3333 49.9 73.3 49.7667 73.2667C44.4667 71.8 41 69.8333 37.3667 66.2667C32.7 61.6333 30.1333 55.4667 30.1333 48.8667C30.1333 43.4667 34.7333 39.0667 40.4 39.0667C46.0667 39.0667 50.6667 43.4667 50.6667 48.8667C50.6667 52.4333 53.7667 55.3333 57.6 55.3333C61.4333 55.3333 64.5333 52.4333 64.5333 48.8667C64.5333 36.3 53.7 26.1 40.3667 26.1C30.9 26.1 22.2333 31.3667 18.3333 39.5333C17.0333 42.2333 16.3667 45.4 16.3667 48.8667C16.3667 51.4667 16.6 55.5667 18.6 60.9C18.9333 61.7667 18.5 62.7333 17.6333 63.0333C16.7667 63.3667 15.8 62.9 15.5 62.0667C13.8667 57.7 13.0667 53.3667 13.0667 48.8667C13.0667 44.8667 13.8333 41.2333 15.3333 38.0667C19.7667 28.7667 29.6 22.7333 40.3667 22.7333C55.5333 22.7333 67.8667 34.4333 67.8667 48.8333C67.8667 54.2333 63.2667 58.6333 57.6 58.6333C51.9333 58.6333 47.3333 54.2333 47.3333 48.8333C47.3333 45.2667 44.2333 42.3667 40.4 42.3667C36.5667 42.3667 33.4667 45.2667 33.4667 48.8333C33.4667 54.5333 35.6667 59.8667 39.7 63.8667C42.8667 67 45.9 68.7333 50.6 70.0333C51.5 70.2667 52 71.2 51.7667 72.0667C51.6 72.8333 50.9 73.3333 50.2 73.3333Z" fill="#00A0DF"/>
</g>
<defs>
<clipPath id="clip0_6551_118707">
<rect width="80" height="80" fill="white" transform="translate(0.5)"/>
</clipPath>
</defs>
</svg>
